<?xml version="1.0" encoding="UTF-8" standalone="no"?>
<!DOCTYPE svg PUBLIC "-//W3C//DTD SVG 1.1//EN"
 "http://www.w3.org/Graphics/SVG/1.1/DTD/svg11.dtd">
<!-- Generated by graphviz version 2.40.1 (20161225.0304)
 -->
<!-- Title: dependencies Pages: 1 -->
<svg width="504pt" height="284pt"
 viewBox="0.00 0.00 504.00 284.00" xmlns="http://www.w3.org/2000/svg" xmlns:xlink="http://www.w3.org/1999/xlink">
<g id="graph0" class="graph" transform="scale(1 1) rotate(0) translate(4 280)">
<title>dependencies</title>
<polygon fill="#ffffff" stroke="transparent" points="-4,4 -4,-280 500,-280 500,4 -4,4"/>
<text text-anchor="start" x="227.0091" y="-42.4" font-family="sans-serif" font-weight="bold" font-size="14.00" fill="#000000">Legend</text>
<polygon fill="#ffffb3" stroke="transparent" points="14,-10 14,-30 34,-30 34,-10 14,-10"/>
<text text-anchor="start" x="37.629" y="-15.4" font-family="sans-serif" font-size="14.00" fill="#000000"> &#160;Declarations</text>
<polygon fill="#8dd3c7" stroke="transparent" points="127,-10 127,-30 147,-30 147,-10 127,-10"/>
<text text-anchor="start" x="150.7251" y="-15.4" font-family="sans-serif" font-size="14.00" fill="#000000"> &#160;Module</text>
<polygon fill="#80b1d3" stroke="transparent" points="213,-10 213,-30 233,-30 233,-10 213,-10"/>
<text text-anchor="start" x="236.7812" y="-15.4" font-family="sans-serif" font-size="14.00" fill="#000000"> &#160;Bootstrap</text>
<polygon fill="#fdb462" stroke="transparent" points="310,-10 310,-30 330,-30 330,-10 310,-10"/>
<text text-anchor="start" x="333.6732" y="-15.4" font-family="sans-serif" font-size="14.00" fill="#000000"> &#160;Providers</text>
<polygon fill="#fb8072" stroke="transparent" points="406,-10 406,-30 426,-30 426,-10 406,-10"/>
<text text-anchor="start" x="429.7258" y="-15.4" font-family="sans-serif" font-size="14.00" fill="#000000"> &#160;Exports</text>
<g id="clust1" class="cluster">
<title>cluster_LoginModule</title>
<polygon fill="none" stroke="#000000" stroke-dasharray="1,5" points="87.5,-70 87.5,-268 408.5,-268 408.5,-70 87.5,-70"/>
</g>
<g id="clust2" class="cluster">
<title>cluster_LoginModule_declarations</title>
<polygon fill="none" stroke="#000000" points="95.5,-78 95.5,-130 400.5,-130 400.5,-78 95.5,-78"/>
</g>
<g id="clust6" class="cluster">
<title>cluster_LoginModule_exports</title>
<polygon fill="none" stroke="#000000" points="171.5,-208 171.5,-260 305.5,-260 305.5,-208 171.5,-208"/>
</g>
<!-- LoginBtnroleComponent -->
<g id="node1" class="node">
<title>LoginBtnroleComponent</title>
<polygon fill="#ffffb3" stroke="#000000" points="392.7688,-122 236.2312,-122 236.2312,-86 392.7688,-86 392.7688,-122"/>
<text text-anchor="middle" x="314.5" y="-99.8" font-family="Times,serif" font-size="14.00" fill="#000000">LoginBtnroleComponent</text>
</g>
<!-- LoginModule -->
<g id="node3" class="node">
<title>LoginModule</title>
<polygon fill="#8dd3c7" stroke="#000000" points="284.993,-187 281.993,-191 260.993,-191 257.993,-187 192.007,-187 192.007,-151 284.993,-151 284.993,-187"/>
<text text-anchor="middle" x="238.5" y="-164.8" font-family="Times,serif" font-size="14.00" fill="#000000">LoginModule</text>
</g>
<!-- LoginBtnroleComponent&#45;&gt;LoginModule -->
<g id="edge1" class="edge">
<title>LoginBtnroleComponent&#45;&gt;LoginModule</title>
<path fill="none" stroke="#000000" d="M260.5561,-122.1061C260.5561,-122.1061 260.5561,-140.991 260.5561,-140.991"/>
<polygon fill="#000000" stroke="#000000" points="257.0562,-140.9909 260.5561,-150.991 264.0562,-140.991 257.0562,-140.9909"/>
</g>
<!-- LoginComponent -->
<g id="node2" class="node">
<title>LoginComponent</title>
<polygon fill="#ffffb3" stroke="#000000" points="217.7758,-122 103.2242,-122 103.2242,-86 217.7758,-86 217.7758,-122"/>
<text text-anchor="middle" x="160.5" y="-99.8" font-family="Times,serif" font-size="14.00" fill="#000000">LoginComponent</text>
</g>
<!-- LoginComponent&#45;&gt;LoginModule -->
<g id="edge2" class="edge">
<title>LoginComponent&#45;&gt;LoginModule</title>
<path fill="none" stroke="#000000" d="M204.9457,-122.1061C204.9457,-122.1061 204.9457,-140.991 204.9457,-140.991"/>
<polygon fill="#000000" stroke="#000000" points="201.4457,-140.9909 204.9457,-150.991 208.4457,-140.991 201.4457,-140.9909"/>
</g>
<!-- LoginComponent  -->
<g id="node4" class="node">
<title>LoginComponent </title>
<polygon fill="#fb8072" stroke="#000000" points="297.7759,-252 179.2241,-252 179.2241,-216 297.7759,-216 297.7759,-252"/>
<text text-anchor="middle" x="238.5" y="-229.8" font-family="Times,serif" font-size="14.00" fill="#000000">LoginComponent </text>
</g>
<!-- LoginModule&#45;&gt;LoginComponent  -->
<g id="edge3" class="edge">
<title>LoginModule&#45;&gt;LoginComponent </title>
<path fill="none" stroke="#000000" stroke-dasharray="5,2" d="M238.5,-187.1061C238.5,-187.1061 238.5,-205.991 238.5,-205.991"/>
<polygon fill="#000000" stroke="#000000" points="235.0001,-205.9909 238.5,-215.991 242.0001,-205.991 235.0001,-205.9909"/>
</g>
</g>
</svg>
